<svg width="100" height="16.933" viewBox="0 0 1667.92 282.422" xmlns="http://www.w3.org/2000/svg"><g transform="translate(-12.012,-78.809)"><path d="m 116.01563,302.92969 q -29.443364,0 -53.027349,-13.03711 -23.4375,-13.03711 -37.207031,-38.08594 -13.769531,-25.04883 -13.769531,-60.79102 0,-36.03515 13.769531,-61.08398 13.769531,-25.04883 37.207031,-38.085937 23.583985,-13.037109 53.027349,-13.037109 29.15039,0 52.58789,13.037109 23.58398,13.037107 37.35351,38.085937 13.76953,25.04883 13.76953,61.08398 0,35.88868 -13.76953,60.9375 -13.76953,25.04883 -37.35351,38.08594 -23.4375,12.89063 -52.58789,12.89063 z m 0,-45.41016 q 23.73046,0 37.35351,-16.99219 13.62305,-17.13867 13.62305,-49.51172 0,-32.51953 -13.62305,-49.6582 -13.62305,-17.13867 -37.35351,-17.13867 -23.876958,0 -37.500005,17.13867 -13.623047,17.13867 -13.623047,49.6582 0,32.37305 13.623047,49.51172 13.623047,16.99219 37.500005,16.99219 z m 126.71484,103.71094 v -225 h 50.53711 v 28.125 h 1.75781 q 3.07617,-7.32422 8.93555,-14.20899 5.85937,-7.03125 15.08789,-11.42578 9.22851,-4.54101 22.26562,-4.54101 17.28516,0 32.08008,9.08203 14.94141,9.08203 24.02344,27.68555 9.22851,18.60351 9.22851,47.31445 0,27.83203 -8.93554,46.58203 -8.78907,18.60352 -23.73047,28.125 -14.79492,9.375 -32.95899,9.375 -18.75,0 -30.02929,-8.78906 -11.13282,-8.93555 -15.9668,-20.06836 h -1.17187 v 87.74414 z M 323.58984,262.5 q 14.79493,0 22.5586,-12.1582 7.91015,-12.15821 7.91015,-32.08008 0,-19.92188 -7.91015,-31.9336 -7.76367,-12.1582 -22.5586,-12.1582 -14.64843,0 -22.85156,11.86524 -8.05664,11.86523 -8.05664,32.22656 0,20.06836 8.05664,32.22656 Q 308.94141,262.5 323.58984,262.5 Z m 180.76758,40.57617 q -38.52539,0 -60.64453,-22.41211 -21.97266,-22.55859 -21.97266,-61.96289 0,-25.19531 9.81446,-44.23828 9.96093,-19.04297 28.125,-29.58984 18.16406,-10.69336 42.77343,-10.69336 22.99805,0 40.72266,9.66797 17.87109,9.52148 27.97852,28.27148 10.2539,18.60352 10.2539,45.55664 v 12.89063 H 471.98437 q 0.73243,17.72461 9.66797,26.66015 9.08203,8.78906 23.58399,8.78906 10.2539,0 17.72461,-4.24804 7.4707,-4.39453 10.54687,-12.59766 l 45.55664,7.4707 q -6.15234,21.24024 -25.63476,33.8379 -19.33594,12.59765 -49.07227,12.59765 z M 472.27734,200.83008 h 60.64453 q -1.46484,-13.91602 -9.08203,-21.67969 -7.61718,-7.91016 -20.94726,-7.91016 -13.47656,0 -21.38672,8.05664 -7.76367,7.91016 -9.22852,21.53321 z m 181.06055,5.71289 V 300 H 602.21484 V 136.23047 h 48.04688 l 0.8789,35.30273 q 6.44532,-16.99218 18.89649,-27.09961 12.45117,-10.2539 32.37305,-10.2539 25.63476,0 41.16211,16.8457 15.52734,16.8457 15.52734,44.67773 V 300 h -51.12305 v -94.33594 q 0,-13.76953 -7.03125,-21.5332 -7.03125,-7.91016 -19.6289,-7.91016 -12.45118,0 -20.21485,8.05664 -7.76367,7.91016 -7.76367,22.26563 z m 104.5957,-82.61719 V 81.738281 H 941.625 V 123.92578 H 875.56055 V 300 h -51.5625 V 123.92578 Z m 238.92188,178.125 q -25.78125,0 -41.3086,-16.8457 -15.52734,-16.84571 -15.52734,-44.67774 V 136.23047 h 51.12305 v 94.33594 q 0,13.76953 7.03125,21.67968 7.17777,7.76368 19.62887,7.76368 12.5977,0 20.2149,-7.91016 7.7637,-8.05664 7.7637,-22.41211 v -93.45703 h 51.123 V 300 h -48.0469 l -0.7324,-35.44922 q -6.5918,17.13867 -19.043,27.39258 -12.4511,10.10742 -32.22653,10.10742 z m 226.03123,0.29297 q -18.75,0 -30.0293,-8.78906 -11.1328,-8.93555 -15.9668,-20.06836 h -1.7578 V 300 h -50.5371 V 81.738281 h 51.1231 v 82.617189 h 1.1718 q 3.0762,-7.32422 8.9356,-14.20899 5.8593,-7.03125 15.0879,-11.42578 9.2285,-4.54101 22.2656,-4.54101 17.2851,0 32.0801,9.08203 14.9414,9.08203 24.0234,27.68555 9.2285,18.60351 9.2285,47.31445 0,27.83203 -8.9355,46.58203 -8.7891,18.60352 -23.7305,28.125 -14.7949,9.375 -32.959,9.375 z M 1205.4551,262.5 q 14.7949,0 22.5586,-12.1582 7.9101,-12.15821 7.9101,-32.08008 0,-19.92188 -7.9101,-31.9336 -7.7637,-12.1582 -22.5586,-12.1582 -14.6485,0 -22.8516,11.86524 -8.0566,11.86523 -8.0566,32.22656 0,20.06836 8.0566,32.22656 8.2031,12.01172 22.8516,12.01172 z m 180.7676,40.57617 q -38.5254,0 -60.6446,-22.41211 -21.9726,-22.55859 -21.9726,-61.96289 0,-25.19531 9.8144,-44.23828 9.961,-19.04297 28.125,-29.58984 18.1641,-10.69336 42.7735,-10.69336 22.998,0 40.7226,9.66797 17.8711,9.52148 27.9785,28.27148 10.2539,18.60352 10.2539,45.55664 v 12.89063 h -109.4238 q 0.7324,17.72461 9.668,26.66015 9.082,8.78906 23.584,8.78906 10.2539,0 17.7246,-4.24804 7.4707,-4.39453 10.5468,-12.59766 l 45.5567,7.4707 q -6.1524,21.24024 -25.6348,33.8379 -19.3359,12.59765 -49.0722,12.59765 z m -32.0801,-102.24609 h 60.6445 q -1.4648,-13.91602 -9.082,-21.67969 -7.6172,-7.91016 -20.9473,-7.91016 -13.4765,0 -21.3867,8.05664 -7.7637,7.91016 -9.2285,21.53321 z M 1465.916,300 1544.4316,188.37891 1473.6797,81.738281 h 59.9121 l 20.8008,32.666019 q 6.7383,10.69336 10.9863,19.77539 4.3945,9.08203 8.2031,17.43164 3.8086,-8.34961 8.2032,-17.43164 4.3945,-9.08203 11.1328,-19.77539 l 21.2402,-32.666019 h 58.3008 L 1602.8789,186.91406 1679.9297,300 h -61.377 l -27.2461,-41.74805 q -7.3242,-11.27929 -10.9863,-18.45703 -3.6621,-7.17773 -7.4707,-14.35547 -3.8086,7.03125 -7.6172,14.35547 -3.6621,7.17774 -11.1328,18.45703 L 1525.8281,300 Z" fill="#282828"/></g></svg>
